<?xml version="1.0" standalone="no"?>
<!DOCTYPE svg PUBLIC "-//W3C//DTD SVG 20010904//EN"
 "http://www.w3.org/TR/2001/REC-SVG-20010904/DTD/svg10.dtd">
<svg version="1.0" xmlns="http://www.w3.org/2000/svg"
 width="1024.000000pt" height="1024.000000pt" viewBox="0 0 1024.000000 1024.000000"
 preserveAspectRatio="xMidYMid meet">

<g transform="translate(0.000000,1024.000000) scale(0.100000,-0.100000)"
fill="#000000" stroke="none">
<path d="M4950 7564 c-1032 -61 -1958 -562 -2721 -1474 -208 -249 -443 -603
-565 -854 -64 -130 -62 -162 17 -314 412 -788 1093 -1498 1814 -1891 547 -298
1114 -436 1715 -418 494 15 875 106 1332 318 686 317 1329 904 1809 1649 97
151 238 395 267 463 30 71 6 140 -138 387 -211 364 -448 670 -759 981 -359
358 -686 598 -1091 800 -377 188 -718 287 -1145 334 -138 15 -426 25 -535 19z
m411 -564 c514 -51 947 -206 1374 -492 368 -246 748 -615 1025 -998 114 -157
260 -381 260 -400 0 -18 -162 -274 -263 -415 -222 -311 -520 -630 -787 -843
-447 -356 -944 -578 -1450 -647 -165 -23 -481 -30 -637 -16 -714 69 -1328 362
-1886 901 -286 276 -518 570 -721 912 l-58 97 54 88 c312 517 770 1013 1200
1301 466 312 913 473 1433 515 96 8 361 6 456 -3z"/>
<path d="M5359 6433 c-14 -2 -41 -19 -59 -38 -35 -36 -15 22 -329 -980 -345
-1101 -394 -1254 -427 -1354 -62 -184 -19 -232 206 -235 109 -1 129 2 160 19
49 29 67 70 164 380 133 422 568 1795 633 1995 41 127 17 189 -79 209 -46 10
-213 13 -269 4z m149 -20 c-10 -2 -28 -2 -40 0 -13 2 -5 4 17 4 22 1 32 -1 23
-4z m147 -4 c13 -6 4 -7 -30 -3 -27 4 -52 8 -54 10 -9 8 65 2 84 -7z m-335
-23 c0 -2 -8 -10 -17 -17 -16 -13 -17 -12 -4 4 13 16 21 21 21 13z m385 -112
c-3 -18 -10 -36 -15 -39 -6 -4 -6 4 0 20 6 15 11 45 11 68 2 33 3 36 6 13 3
-16 2 -44 -2 -62z m-434 15 c-5 -13 -10 -19 -10 -12 -1 15 10 45 15 40 3 -2 0
-15 -5 -28z m-44 -141 c-3 -8 -6 -5 -6 6 -1 11 2 17 5 13 3 -3 4 -12 1 -19z
m410 -90 c-3 -8 -6 -5 -6 6 -1 11 2 17 5 13 3 -3 4 -12 1 -19z m-17 -55 c-11
-17 -11 -17 -6 0 3 10 6 24 7 30 0 9 2 9 5 0 3 -7 0 -20 -6 -30z m-479 -120
c-12 -20 -14 -14 -5 12 4 9 9 14 11 11 3 -2 0 -13 -6 -23z m442 2 c-3 -9 -8
-14 -10 -11 -3 3 -2 9 2 15 9 16 15 13 8 -4z m-32 -99 c-14 -36 -22 -33 -9 5
6 16 12 28 14 26 3 -2 0 -16 -5 -31z m-444 -8 c-3 -8 -6 -5 -6 6 -1 11 2 17 5
13 3 -3 4 -12 1 -19z m-80 -260 c-3 -8 -6 -5 -6 6 -1 11 2 17 5 13 3 -3 4 -12
1 -19z m-30 -100 c-3 -8 -6 -5 -6 6 -1 11 2 17 5 13 3 -3 4 -12 1 -19z m-14
-48 c-3 -12 -8 -19 -11 -16 -5 6 5 36 12 36 2 0 2 -9 -1 -20z m-33 -97 c-11
-17 -11 -17 -6 0 3 10 6 24 7 30 0 9 2 9 5 0 3 -7 0 -20 -6 -30z m-33 -105
c-3 -8 -6 -5 -6 6 -1 11 2 17 5 13 3 -3 4 -12 1 -19z m430 -30 c-3 -8 -6 -5
-6 6 -1 11 2 17 5 13 3 -3 4 -12 1 -19z m-441 -14 c-4 -9 -9 -15 -11 -12 -3 3
-3 13 1 22 4 9 9 15 11 12 3 -3 3 -13 -1 -22z m-32 -98 c-3 -15 -8 -25 -11
-23 -2 3 -1 17 3 31 3 15 8 25 11 23 2 -3 1 -17 -3 -31z m417 -39 c-10 -9 -11
-8 -5 6 3 10 9 15 12 12 3 -3 0 -11 -7 -18z m-441 -34 c-11 -17 -11 -17 -6 0
3 10 6 24 7 30 0 9 2 9 5 0 3 -7 0 -20 -6 -30z m420 -58 c-16 -47 -23 -40 -8
8 6 20 13 35 16 33 2 -3 -1 -21 -8 -41z m-436 1 c-3 -15 -8 -25 -11 -23 -2 3
-1 17 3 31 3 15 8 25 11 23 2 -3 1 -17 -3 -31z m-24 -73 c-11 -17 -11 -17 -6
0 3 10 6 24 7 30 0 9 2 9 5 0 3 -7 0 -20 -6 -30z m411 -77 c-11 -27 -24 -37
-16 -11 3 8 7 22 10 31 3 9 8 15 11 12 2 -3 0 -17 -5 -32z m-471 -113 c-11
-17 -11 -17 -6 0 3 10 6 24 7 30 0 9 2 9 5 0 3 -7 0 -20 -6 -30z m424 -37 c-3
-15 -8 -25 -11 -23 -2 3 -1 17 3 31 3 15 8 25 11 23 2 -3 1 -17 -3 -31z m-23
-67 c-5 -13 -10 -19 -10 -12 -1 15 10 45 15 40 3 -2 0 -15 -5 -28z m-14 -51
c-3 -8 -6 -5 -6 6 -1 11 2 17 5 13 3 -3 4 -12 1 -19z m-66 -209 c-9 -22 -10
-22 -10 -3 -1 11 2 24 6 27 12 12 14 0 4 -24z m-64 -201 c-3 -8 -6 -5 -6 6 -1
11 2 17 5 13 3 -3 4 -12 1 -19z m-20 -70 c-3 -8 -6 -5 -6 6 -1 11 2 17 5 13 3
-3 4 -12 1 -19z m-7 -28 c0 -5 -5 -10 -11 -10 -5 0 -7 5 -4 10 3 6 8 10 11 10
2 0 4 -4 4 -10z m-433 -62 c-3 -8 -6 -5 -6 6 -1 11 2 17 5 13 3 -3 4 -12 1
-19z m389 -26 c-17 -16 -18 -16 -5 5 7 12 15 20 18 17 3 -2 -3 -12 -13 -22z"/>
<path d="M4145 5990 c-25 -12 -184 -164 -427 -407 -370 -372 -386 -390 -396
-436 -16 -78 -1 -110 96 -209 47 -48 90 -85 95 -81 6 3 7 1 3 -6 -5 -8 96
-117 281 -302 319 -322 351 -346 442 -337 100 10 188 91 199 183 9 82 -13 117
-178 279 -82 81 -154 145 -160 141 -6 -4 -9 -3 -8 2 5 17 -24 54 -38 49 -7 -3
-13 -1 -11 4 1 6 -47 59 -107 119 l-110 109 172 173 c94 95 169 175 166 178
-3 3 -21 -11 -40 -32 -19 -20 -37 -37 -41 -37 -4 0 11 18 32 40 22 22 45 38
53 35 12 -4 77 59 77 76 0 4 4 11 9 16 5 5 6 3 2 -4 -14 -25 7 -12 39 24 18
21 31 44 28 53 -4 13 -3 13 6 0 8 -12 17 -7 52 30 23 24 48 58 55 76 16 39 18
111 4 148 -14 38 -81 107 -117 123 -48 19 -131 16 -178 -7z m230 -50 c10 -11
16 -20 13 -20 -3 0 -13 9 -23 20 -10 11 -16 20 -13 20 3 0 13 -9 23 -20z
m-305 -33 c0 -2 -10 -12 -22 -23 l-23 -19 19 23 c18 21 26 27 26 19z m359 -52
c0 -5 -6 1 -14 15 -8 14 -14 30 -14 35 0 6 6 -1 14 -15 8 -14 14 -29 14 -35z
m6 -75 c-4 -23 -9 -39 -11 -37 -3 2 -2 23 2 46 4 23 9 40 11 37 3 -3 2 -23 -2
-46z m-495 -3 c0 -1 -28 -29 -62 -62 l-63 -60 60 63 c55 58 65 67 65 59z m480
-50 c0 -2 -11 -18 -25 -37 -14 -19 -25 -31 -25 -27 0 5 10 21 22 37 20 27 28
35 28 27z m-650 -120 c0 -2 -10 -12 -22 -23 l-23 -19 19 23 c18 21 26 27 26
19z m-60 -60 c0 -2 -12 -14 -27 -28 l-28 -24 24 28 c23 25 31 32 31 24z m-90
-90 c0 -2 -12 -14 -27 -28 l-28 -24 24 28 c23 25 31 32 31 24z m-100 -100 c0
-2 -17 -19 -37 -38 l-38 -34 34 38 c33 34 41 42 41 34z m-80 -80 c0 -2 -17
-19 -37 -38 l-38 -34 34 38 c33 34 41 42 41 34z m530 -10 c0 -2 -12 -14 -27
-28 l-28 -24 24 28 c23 25 31 32 31 24z m-633 -189 c-3 -7 -5 -2 -5 12 0 14 2
19 5 13 2 -7 2 -19 0 -25z m559 -70 l29 -33 -32 29 c-31 28 -38 36 -30 36 2 0
16 -15 33 -32z m-501 -18 c10 -11 16 -20 13 -20 -3 0 -13 9 -23 20 -10 11 -16
20 -13 20 3 0 13 -9 23 -20z m786 -257 c13 -16 12 -17 -3 -4 -10 7 -18 15 -18
17 0 8 8 3 21 -13z m-510 -30 c13 -16 12 -17 -3 -4 -17 13 -22 21 -14 21 2 0
10 -8 17 -17z m550 -10 c13 -16 12 -17 -3 -4 -17 13 -22 21 -14 21 2 0 10 -8
17 -17z m39 -44 c0 -5 -4 -9 -8 -9 -5 0 -9 7 -9 15 0 8 4 12 9 9 4 -3 8 -9 8
-15z m-509 -26 c13 -16 12 -17 -3 -4 -17 13 -22 21 -14 21 2 0 10 -8 17 -17z
m80 -80 c13 -16 12 -17 -3 -4 -17 13 -22 21 -14 21 2 0 10 -8 17 -17z m559
-24 c0 -6 -4 -7 -10 -4 -5 3 -10 11 -10 16 0 6 5 7 10 4 6 -3 10 -11 10 -16z
m39 -109 c0 -14 -6 -4 -14 25 -18 63 -18 81 0 35 7 -19 14 -46 14 -60z m-439
-20 c0 -5 -2 -10 -4 -10 -3 0 -8 5 -11 10 -3 6 -1 10 4 10 6 0 11 -4 11 -10z
m426 -36 c-4 -9 -9 -15 -11 -12 -3 3 -3 13 1 22 4 9 9 15 11 12 3 -3 3 -13 -1
-22z m-311 -78 c15 -14 11 -13 -12 3 -18 12 -33 27 -33 34 0 6 5 5 13 -4 6 -8
21 -23 32 -33z m235 -11 c-7 -9 -15 -13 -19 -10 -3 3 1 10 9 15 21 14 24 12
10 -5z"/>
<path d="M5960 6000 c-126 -35 -192 -148 -154 -262 15 -46 48 -83 303 -340
157 -159 287 -291 289 -293 2 -1 -128 -135 -289 -296 -160 -162 -298 -308
-305 -326 -8 -18 -14 -57 -14 -86 0 -44 6 -62 29 -94 76 -105 198 -141 284
-84 41 27 379 363 382 380 1 8 9 15 19 17 9 1 100 85 201 185 148 147 184 188
179 204 -4 15 -3 16 4 6 24 -34 50 79 32 136 -10 30 -99 124 -399 426 -212
214 -402 397 -421 406 -41 21 -105 31 -140 21z m33 -17 c-7 -2 -19 -2 -25 0
-7 3 -2 5 12 5 14 0 19 -2 13 -5z m-127 -63 c-20 -22 -36 -45 -36 -52 0 -6 -3
-8 -6 -5 -9 8 22 57 50 79 33 28 31 21 -8 -22z m275 13 c13 -16 12 -17 -3 -4
-10 7 -18 15 -18 17 0 8 8 3 21 -13z m85 -90 c-7 -7 -26 7 -26 19 0 6 6 6 15
-2 9 -7 13 -15 11 -17z m73 -76 c-2 -3 -15 10 -28 27 l-24 31 28 -27 c16 -15
27 -29 24 -31z m-471 -32 c-3 -3 -9 2 -12 12 -6 14 -5 15 5 6 7 -7 10 -15 7
-18z m22 -40 c14 -19 14 -19 -2 -6 -10 7 -18 18 -18 24 0 6 1 8 3 6 1 -2 9
-13 17 -24z m215 -215 c10 -11 16 -20 13 -20 -3 0 -13 9 -23 20 -10 11 -16 20
-13 20 3 0 13 -9 23 -20z m150 -160 c10 -11 16 -20 13 -20 -3 0 -13 9 -23 20
-10 11 -16 20 -13 20 3 0 13 -9 23 -20z m88 -85 c23 -32 17 -32 -13 0 -13 14
-19 25 -14 25 5 0 17 -12 27 -25z m583 -58 c23 -35 31 -112 14 -137 -7 -11 -8
-3 -4 27 4 28 2 48 -6 58 -6 8 -9 18 -6 23 3 5 -4 21 -15 36 -11 14 -17 26
-12 26 4 0 18 -15 29 -33z m-515 -9 l23 -33 -27 24 c-15 14 -27 28 -27 33 0
15 8 8 31 -24z m499 -181 c0 -2 -17 -19 -37 -38 l-38 -34 34 38 c33 34 41 42
41 34z m-90 -92 c-7 -8 -17 -15 -23 -15 -6 0 -2 7 9 15 25 19 30 19 14 0z
m-40 -40 c0 -2 -10 -9 -22 -15 -22 -11 -22 -10 -4 4 21 17 26 19 26 11z m-80
-80 c0 -2 -10 -9 -22 -15 -22 -11 -22 -10 -4 4 21 17 26 19 26 11z m-780 -229
c0 -2 -8 -10 -17 -17 -16 -13 -17 -12 -4 4 13 16 21 21 21 13z m-61 -196 c1
-13 0 -13 -9 0 -5 8 -9 24 -9 35 l0 20 9 -20 c5 -11 9 -27 9 -35z m421 17 c0
-2 -10 -12 -22 -23 l-23 -19 19 23 c18 21 26 27 26 19z m-50 -51 c0 -2 -8 -10
-17 -17 -16 -13 -17 -12 -4 4 13 16 21 21 21 13z m-255 -86 c3 -6 -1 -7 -9 -4
-18 7 -21 14 -7 14 6 0 13 -4 16 -10z"/>
</g>
</svg>
